<svg xmlns="http://www.w3.org/2000/svg" xmlns:xlink="http://www.w3.org/1999/xlink" width="400px"
    height="1071px" viewBox="0 0 400 1065" version="1.1">
    <g id="surface1">
        <path
            style=" stroke:none;fill-rule:nonzero;fill:rgb(20.784314%,40.392157%,22.745098%);fill-opacity:1;"
            d="M 143.652344 110.847656 C 143.324219 110.847656 142.976562 110.800781 142.652344 110.707031 C 140.765625 110.152344 139.699219 108.199219 140.253906 106.3125 C 142.394531 98.988281 145.976562 91.964844 150.628906 85.875 C 148.324219 83.386719 145.8125 81.152344 143.09375 79.175781 C 137.09375 87.503906 132.765625 97.152344 130.582031 107.175781 C 130.164062 109.082031 128.277344 110.289062 126.371094 109.871094 C 124.464844 109.453125 123.253906 107.570312 123.675781 105.664062 C 126.140625 94.339844 131.09375 83.433594 138.023438 74.132812 C 139.464844 72.203125 141.164062 71.269531 143.046875 71.410156 C 144.464844 71.503906 145.464844 72.203125 145.976562 72.527344 C 150.164062 75.386719 153.953125 78.78125 157.253906 82.617188 C 157.558594 82.96875 158.277344 83.828125 158.488281 85.128906 C 158.765625 87.105469 157.628906 88.523438 157.253906 88.992188 C 152.675781 94.640625 149.164062 101.316406 147.117188 108.3125 C 146.675781 109.847656 145.253906 110.847656 143.722656 110.847656 Z M 143.652344 110.847656 " />
        <path
            style=" stroke:none;fill-rule:nonzero;fill:rgb(20.784314%,40.392157%,22.745098%);fill-opacity:1;"
            d="M 135.324219 315.757812 C 133.464844 321.175781 128.164062 316.988281 125.882812 314.269531 C 71.699219 268.691406 56.046875 144.496094 119.277344 100.734375 C 122.371094 98.964844 129.1875 93.875 131.746094 98.941406 C 132.441406 100.78125 131.511719 102.824219 129.699219 103.5 C 67.953125 129.636719 79.882812 268.4375 126.09375 304.964844 C 127.8125 306.128906 129.234375 308.710938 128.511719 304.710938 C 126.929688 287.132812 121.675781 265.460938 116.441406 249.367188 C 111.605469 231.417969 103.765625 159.796875 116.023438 148.148438 C 118.300781 148.078125 120 150.078125 119.675781 152.214844 C 115 183.210938 116.140625 215.464844 122.929688 245.996094 C 129.722656 270.226562 136.746094 291.085938 135.324219 315.757812 Z M 135.324219 315.757812 " />
        <path
            style=" stroke:none;fill-rule:nonzero;fill:rgb(20.784314%,40.392157%,22.745098%);fill-opacity:1;"
            d="M 167.394531 216.71875 C 167.300781 234.929688 162.417969 252.484375 157.699219 269.4375 C 157.324219 270.785156 156.1875 271.785156 154.789062 271.992188 C 154.628906 272.015625 154.441406 272.039062 154.277344 272.039062 C 153.070312 272.039062 151.929688 271.414062 151.277344 270.390625 C 144.464844 259.53125 139.675781 247.183594 137.371094 234.53125 C 136.324219 230.066406 135.488281 226.113281 135.394531 225.394531 C 132.652344 205.09375 128.441406 182.375 118.394531 161.867188 C 118.746094 158.632812 119.164062 155.425781 119.652344 152.214844 C 119.953125 150.285156 118.605469 148.472656 116.675781 148.191406 C 114.746094 147.890625 112.929688 149.238281 112.652344 151.167969 C 112.652344 151.261719 112.628906 151.355469 112.605469 151.449219 C 111.722656 150.054688 110.8125 148.65625 109.882812 147.285156 L 106.789062 142.796875 C 105.675781 141.195312 106.09375 138.984375 107.699219 137.867188 C 109.300781 136.753906 111.511719 137.171875 112.628906 138.777344 L 115.722656 143.261719 C 132.8125 168.074219 138.765625 197.839844 142.300781 223.789062 C 143.210938 227.601562 143.882812 230.789062 144 231.464844 C 145.558594 241.089844 148.675781 250.578125 153.117188 259.320312 C 156.882812 245.390625 160.210938 231.089844 160.277344 216.699219 C 160.347656 201.722656 156.835938 187.050781 151.605469 173.050781 C 151.953125 173.703125 152.511719 174.261719 153.253906 174.585938 C 155.652344 175.679688 158.09375 176.492188 160.558594 177.121094 C 164.765625 189.839844 167.441406 203.140625 167.371094 216.742188 Z M 167.394531 216.71875 " />
        <path
            style=" stroke:none;fill-rule:nonzero;fill:rgb(20.784314%,40.392157%,22.745098%);fill-opacity:1;"
            d="M 119.675781 152.214844 C 119.1875 155.425781 118.765625 158.632812 118.417969 161.867188 C 116.675781 158.308594 114.746094 154.84375 112.652344 151.449219 C 112.652344 151.355469 112.675781 151.261719 112.699219 151.167969 C 113 149.238281 114.789062 147.914062 116.722656 148.191406 C 118.652344 148.496094 119.976562 150.285156 119.699219 152.214844 Z M 119.675781 152.214844 " />
        <path
            style=" stroke:none;fill-rule:nonzero;fill:rgb(20.784314%,40.392157%,22.745098%);fill-opacity:1;"
            d="M 160.582031 177.097656 C 158.117188 176.492188 155.652344 175.65625 153.277344 174.5625 C 152.558594 174.238281 152 173.679688 151.628906 173.027344 C 151.628906 173.027344 151.628906 173.027344 151.628906 173.003906 C 151.511719 172.703125 151.394531 172.375 151.277344 172.074219 C 146.117188 158.539062 139.371094 145.703125 132.699219 133.960938 C 131.722656 132.265625 132.324219 130.101562 134.023438 129.125 C 135.722656 128.148438 137.882812 128.753906 138.859375 130.449219 C 145.558594 142.242188 152.324219 155.074219 157.582031 168.679688 C 158.652344 171.445312 159.675781 174.261719 160.605469 177.074219 Z M 160.582031 177.097656 " />
        <path
            style=" stroke:none;fill-rule:nonzero;fill:rgb(20.784314%,40.392157%,22.745098%);fill-opacity:1;"
            d="M 211.464844 169.238281 C 205.746094 174.863281 198.371094 175.980469 191.234375 177.074219 L 190.605469 177.167969 C 185.394531 177.980469 179.8125 178.632812 174.164062 178.632812 C 169.628906 178.632812 165.046875 178.214844 160.582031 177.097656 C 158.117188 176.492188 155.652344 175.65625 153.277344 174.5625 C 152.558594 174.238281 152 173.679688 151.628906 173.027344 C 151.628906 173.027344 151.628906 173.027344 151.628906 173.003906 C 151.464844 172.726562 151.347656 172.398438 151.277344 172.074219 C 151.140625 171.351562 151.1875 170.585938 151.511719 169.863281 C 152.324219 168.097656 154.417969 167.308594 156.210938 168.097656 C 156.652344 168.308594 157.117188 168.492188 157.558594 168.679688 C 167.652344 172.75 179.347656 171.726562 189.535156 170.167969 L 190.164062 170.074219 C 195.789062 169.214844 200.746094 168.445312 204.605469 165.75 C 202.046875 161.449219 196.90625 157.9375 188.953125 155.007812 C 182.164062 152.496094 174.953125 150.613281 168 148.796875 C 164.140625 147.796875 158.929688 146.425781 155.441406 142.472656 C 153.1875 139.914062 152.070312 136.730469 151.1875 134.171875 L 143.070312 110.777344 L 141.652344 106.710938 C 141 104.847656 141.976562 102.847656 143.835938 102.199219 C 145.675781 101.546875 147.699219 102.546875 148.347656 104.382812 C 148.347656 104.382812 157.859375 131.871094 157.859375 131.871094 C 158.628906 134.03125 159.394531 136.289062 160.722656 137.800781 C 162.628906 139.960938 165.929688 140.960938 169.722656 141.960938 C 176.882812 143.84375 184.277344 145.773438 191.371094 148.378906 C 202.675781 152.542969 209.488281 158.121094 212.253906 165.46875 C 212.746094 166.773438 212.417969 168.261719 211.417969 169.238281 Z M 211.464844 169.238281 " />
        <path
            style=" stroke:none;fill-rule:nonzero;fill:rgb(20.784314%,40.392157%,22.745098%);fill-opacity:1;"
            d="M 291.90625 230.953125 C 290.210938 237.484375 281.582031 241.53125 274.234375 244.367188 C 272.535156 249.183594 267.417969 252.089844 262.417969 251.367188 C 261.90625 254.808594 264.300781 257.761719 263.210938 261.691406 C 261.835938 268.203125 254.371094 266.203125 249.90625 266.902344 C 245.023438 267.25 244.558594 259.507812 249.488281 259.296875 C 249.488281 259.296875 255.8125 258.949219 255.8125 258.949219 C 253.371094 251.996094 254.789062 242.460938 264.140625 243.855469 C 267.210938 243.695312 267.164062 239.625 273.300781 237.019531 C 277.140625 234.507812 284.164062 231.601562 284.511719 229.160156 C 278.070312 209.046875 248.441406 194.003906 227.835938 194.328125 C 223.835938 199.769531 226.441406 214.882812 225.605469 219.046875 C 224.628906 223.742188 223.605469 228.601562 221.511719 233.253906 C 219.023438 238.8125 215 242.484375 210.90625 245.484375 C 207.277344 248.136719 204.699219 250.902344 200.164062 252.785156 C 191.394531 257.53125 171.652344 259.597656 188.417969 271.25 C 192.210938 273.921875 188.277344 279.945312 184.324219 277.644531 C 172.371094 270.621094 169.746094 256.136719 184.300781 251.226562 C 184.300781 251.226562 197.210938 245.789062 197.210938 245.789062 C 200.929688 244.136719 204.164062 241.066406 208.558594 238.042969 C 216.277344 232.742188 216.253906 225.765625 218.140625 217.652344 C 217.746094 208.394531 217.417969 204.1875 218.976562 195.980469 C 219.605469 192.792969 222.1875 186.746094 227.324219 186.722656 C 250.070312 186.140625 275.140625 199.886719 288.117188 218.347656 C 291.582031 223.277344 292.789062 227.277344 291.90625 230.929688 Z M 291.90625 230.953125 " />
        <path
            style=" stroke:none;fill-rule:nonzero;fill:rgb(20.784314%,40.392157%,22.745098%);fill-opacity:1;"
            d="M 263.90625 231.230469 C 267.976562 233.671875 283.324219 235.347656 282.699219 228.253906 C 281.441406 222.441406 274.253906 226.601562 270.511719 225.511719 C 260.835938 223.695312 267.746094 212.511719 251.140625 211.859375 C 245.464844 211.789062 239.929688 208.324219 238.324219 202.722656 C 237 197.976562 229.558594 200.1875 231.046875 204.882812 C 233.140625 211.882812 239.347656 217.511719 246.511719 218.882812 C 249.511719 219.605469 254.789062 219.164062 256.558594 221.160156 C 258.300781 224.765625 259.746094 229.300781 263.929688 231.207031 Z M 263.90625 231.230469 " />
        <path
            style=" stroke:none;fill-rule:nonzero;fill:rgb(20.784314%,40.392157%,22.745098%);fill-opacity:1;"
            d="M 206.535156 293.433594 C 219.277344 299.128906 232.882812 310.734375 247.765625 306.128906 C 252.859375 304.546875 255.464844 299.664062 255.234375 295.152344 C 255.234375 295.152344 256.535156 264.691406 256.535156 264.691406 C 256.628906 262.597656 255 260.832031 252.90625 260.738281 C 250.8125 260.644531 249.046875 262.273438 248.953125 264.367188 L 247.652344 294.828125 C 247.582031 297.082031 247.511719 298.175781 245.140625 298.992188 C 233.070312 303.269531 195.8125 279.085938 186.976562 270.4375 C 185.464844 268.992188 183.046875 269.039062 181.605469 270.574219 C 175.675781 277.039062 201.929688 290.292969 206.558594 293.410156 Z M 206.535156 293.433594 " />
        <path
            style=" stroke:none;fill-rule:nonzero;fill:rgb(20.784314%,40.392157%,22.745098%);fill-opacity:1;"
            d="M 240.394531 253.273438 C 245.1875 256.15625 248.394531 246.277344 250.582031 243.8125 C 251.699219 242.042969 251.164062 239.695312 249.394531 238.554688 C 244.488281 235.300781 241.234375 245.367188 239 247.902344 C 237.835938 249.738281 238.464844 252.226562 240.394531 253.273438 Z M 240.394531 253.273438 " />
        <path
            style=" stroke:none;fill-rule:nonzero;fill:rgb(20.784314%,40.392157%,22.745098%);fill-opacity:1;"
            d="M 224.929688 244.765625 C 231.394531 248.273438 238.210938 229.253906 230.046875 228.929688 C 224.558594 229.089844 227.164062 236.207031 223.859375 238.996094 C 222.324219 240.789062 222.859375 243.671875 224.953125 244.789062 Z M 224.929688 244.765625 " />
        <path
            style=" stroke:none;fill-rule:nonzero;fill:rgb(20.784314%,40.392157%,22.745098%);fill-opacity:1;"
            d="M 264.070312 203.351562 C 275.324219 207.234375 270.699219 176.097656 267.070312 170.886719 C 265.1875 166.332031 258.070312 169.398438 260.09375 173.910156 C 263.722656 182.304688 264.253906 192.140625 261.535156 200.863281 C 261 202.605469 262.535156 202.488281 264.070312 203.351562 Z M 264.070312 203.351562 " />
        <path
            style=" stroke:none;fill-rule:nonzero;fill:rgb(20.784314%,40.392157%,22.745098%);fill-opacity:1;"
            d="M 208.882812 301.992188 C 211.117188 303.269531 214.140625 301.804688 214.464844 299.222656 C 214.882812 296.222656 216.628906 290.480469 212 289.875 C 209.929688 289.574219 208 290.992188 207.675781 293.085938 C 207.441406 295.640625 205.628906 300.570312 208.859375 301.992188 Z M 208.882812 301.992188 " />
        <path
            style=" stroke:none;fill-rule:nonzero;fill:rgb(20.784314%,40.392157%,22.745098%);fill-opacity:1;"
            d="M 201.789062 299.316406 C 203.628906 300.316406 205.953125 299.664062 206.953125 297.804688 C 208.277344 294.945312 213.09375 289.386719 208.535156 287.015625 C 206.699219 286.015625 204.371094 286.667969 203.371094 288.527344 C 202.046875 291.386719 197.234375 296.945312 201.789062 299.316406 Z M 201.789062 299.316406 " />
        <path
            style=" stroke:none;fill-rule:nonzero;fill:rgb(20.784314%,40.392157%,22.745098%);fill-opacity:1;"
            d="M 196.1875 296.246094 C 199.628906 298.433594 202.511719 293.269531 204.464844 291.269531 C 205.835938 289.6875 205.652344 287.269531 204.070312 285.898438 C 200.511719 282.691406 197.1875 288.15625 195.140625 290.433594 C 193.558594 292.222656 194.09375 295.128906 196.1875 296.246094 Z M 196.1875 296.246094 " />
        <path
            style=" stroke:none;fill-rule:nonzero;fill:rgb(20.784314%,40.392157%,22.745098%);fill-opacity:1;"
            d="M 266.347656 195.628906 C 255.441406 176.539062 287.234375 176.5625 295.371094 179.910156 C 300.605469 181.46875 331.023438 195.492188 319.09375 200.628906 C 302.117188 205.582031 282.488281 209.882812 266.347656 195.628906 Z M 293.140625 187.164062 C 288.277344 186.027344 274.929688 183.722656 271.765625 189.074219 C 271.582031 189.582031 271.882812 190.445312 272.417969 191.027344 C 282.394531 199.28125 297.722656 198.675781 309.234375 195.421875 C 304.140625 192.003906 298.859375 188.910156 293.117188 187.164062 Z M 293.140625 187.164062 " />
        <path
            style=" stroke:none;fill-rule:nonzero;fill:rgb(20.784314%,40.392157%,22.745098%);fill-opacity:1;"
            d="M 214.8125 283.851562 C 228.765625 288.386719 230.117188 283.316406 241.675781 297.96875 C 243 299.59375 245.417969 299.804688 247.023438 298.480469 C 253.347656 293.246094 233.210938 278.644531 228.371094 278.808594 C 222.324219 277.898438 217.394531 278.851562 215.046875 272.457031 C 213.371094 267.25 190.417969 255.507812 188.652344 263.667969 C 188.1875 265.714844 189.488281 267.761719 191.535156 268.203125 C 210.558594 272.25 204.464844 274.992188 214.8125 283.851562 Z M 214.8125 283.851562 " />
    </g>
</svg>