<svg xmlns="http://www.w3.org/2000/svg" xmlns:xlink="http://www.w3.org/1999/xlink" width="400px"
    height="1071px" viewBox="0 0 400 1065" version="1.1">
    <g id="surface1">
        <path
            style=" stroke:none;fill-rule:nonzero;fill:rgb(20.784314%,40.392157%,22.745098%);fill-opacity:1;"
            d="M 161.675781 294.363281 C 142.164062 294.363281 121.789062 290.457031 103.234375 278.25 L 102.046875 277.457031 L 101.746094 276.0625 C 101.535156 275.132812 96.929688 252.785156 106.070312 224.277344 C 114.464844 198.070312 136.628906 161.609375 194.441406 136.636719 C 224.164062 123.800781 251.859375 108.546875 275.023438 95.316406 C 283.722656 90.339844 292.394531 85.316406 301.070312 80.292969 C 305.441406 77.757812 309.789062 75.222656 314.164062 72.714844 L 314.441406 72.550781 C 320.046875 69.316406 325.347656 66.25 329.234375 68.945312 C 332.652344 71.316406 331.835938 76.222656 331.558594 77.828125 C 325.582031 113.195312 315.882812 133.359375 303.582031 158.867188 L 278.628906 210.675781 C 261.882812 245.414062 244.582031 281.339844 202.859375 289.6875 C 190.324219 292.199219 176.234375 294.363281 161.699219 294.363281 Z M 108.324219 273.226562 C 138.347656 292.222656 173.835938 288.363281 201.488281 282.851562 C 239.8125 275.179688 255.628906 242.367188 272.347656 207.652344 L 297.300781 155.84375 C 309.8125 129.847656 318.859375 111.082031 324.675781 76.6875 C 324.789062 75.992188 324.835938 75.457031 324.859375 75.085938 C 323.046875 75.644531 319.8125 77.527344 317.929688 78.597656 L 317.652344 78.757812 C 313.277344 81.269531 308.929688 83.804688 304.582031 86.339844 C 295.90625 91.386719 287.210938 96.40625 278.511719 101.382812 C 255.164062 114.707031 227.277344 130.054688 197.234375 143.054688 C 98.882812 185.539062 106.628906 262.085938 108.347656 273.25 Z M 108.324219 273.226562 " />
        <path
            style=" stroke:none;fill-rule:nonzero;fill:rgb(20.784314%,40.392157%,22.745098%);fill-opacity:1;"
            d="M 77.976562 302.546875 C 74.046875 302.898438 71.117188 304.175781 69.234375 300.433594 C 66.746094 295.527344 68.722656 289.527344 73.628906 287.039062 C 73.929688 286.875 81.8125 287.597656 93.1875 282.109375 C 131.164062 263.761719 216.070312 214.535156 255.164062 160.472656 C 258.417969 156.007812 263.765625 145.078125 268.234375 148.308594 C 272.699219 151.542969 264.859375 161.167969 261.628906 165.632812 C 208 239.789062 87.070312 298.734375 81.605469 301.503906 C 80.441406 302.105469 79.210938 302.433594 77.976562 302.546875 Z M 77.976562 302.546875 " />
    </g>
</svg>