<svg xmlns="http://www.w3.org/2000/svg" xmlns:xlink="http://www.w3.org/1999/xlink" width="400px"
    height="1071px" viewBox="0 0 400 1065" version="1.1">
    <g id="surface1">
        <path
            style=" stroke:none;fill-rule:nonzero;fill:rgb(20.784314%,40.392157%,22.745098%);fill-opacity:1;"
            d="M 206.675781 318.382812 C 204.488281 318.382812 202.300781 318.3125 200.117188 318.128906 L 200 318.128906 C 199.765625 318.082031 199.582031 318.058594 199.417969 318.011719 C 193.488281 318.011719 172.722656 316.6875 163.652344 314.710938 C 158.277344 313.523438 152.675781 311.941406 147 309.988281 C 142 308.246094 136.722656 306.269531 131.929688 303.222656 C 117.117188 293.898438 113.765625 275.714844 112.488281 260.925781 C 111.675781 251.507812 111.789062 242.019531 111.90625 232.835938 C 111.976562 227.488281 112.023438 221.976562 111.90625 216.582031 C 111.441406 194.863281 112.234375 173.050781 114.300781 151.726562 C 114.371094 151.03125 114.441406 150.332031 114.488281 149.636719 C 115.253906 141.125 116.140625 131.496094 123.605469 124.519531 C 125.1875 123.054688 127 121.707031 128.765625 120.429688 C 129.976562 119.546875 131.1875 118.660156 132.324219 117.730469 C 130.582031 117.035156 129.1875 115.5 128.652344 113.640625 L 128.652344 113.570312 C 126.929688 107.335938 126.722656 100.917969 128.070312 95.011719 C 127.675781 92.757812 128.070312 90.433594 129.210938 88.339844 C 132.09375 83.105469 137.90625 81.757812 142.164062 80.78125 L 142.394531 80.734375 C 147.417969 79.574219 152.652344 78.574219 157.953125 77.78125 C 170.277344 75.898438 188.117188 73.804688 203.117188 74.480469 C 214.675781 75.015625 225.117188 76.621094 236.164062 78.316406 L 237.859375 78.574219 C 243.347656 79.410156 249.117188 80.386719 255.464844 81.550781 C 255.976562 81.640625 256.535156 81.734375 257.117188 81.828125 C 261.210938 82.457031 268.8125 83.59375 269.976562 90.339844 C 270.210938 91.710938 270.117188 93.035156 269.722656 94.246094 C 269.835938 96.082031 269.722656 97.941406 269.605469 99.59375 C 269.535156 100.664062 269.464844 101.6875 269.464844 102.59375 C 269.464844 103.3125 269.558594 104.105469 269.675781 104.964844 C 269.789062 105.988281 269.929688 107.058594 269.929688 108.222656 C 269.929688 111.3125 268.300781 113.941406 265.535156 115.570312 C 266.488281 116.523438 267.605469 117.453125 268.765625 118.382812 C 269.558594 119.011719 270.371094 119.636719 271.234375 120.265625 C 273.8125 122.21875 276.464844 124.21875 278.699219 126.894531 C 281.953125 130.824219 283.859375 135.566406 284.699219 141.84375 C 285.511719 147.75 286 153.726562 286.464844 159.539062 C 287.347656 170.285156 287.929688 181.074219 288.164062 191.605469 C 288.324219 198.628906 288.234375 205.722656 288.164062 212.582031 C 288.140625 215.558594 288.09375 218.535156 288.070312 221.511719 C 288.070312 225.324219 288.09375 229.230469 288.140625 232.996094 C 288.277344 243.972656 288.417969 255.296875 286.976562 266.527344 C 286.234375 272.34375 284.8125 280.96875 280.929688 288.96875 C 277.164062 296.710938 270.746094 302.640625 261.859375 306.59375 C 253.09375 310.5 243.164062 313.546875 232.324219 315.617188 C 225.09375 316.988281 216 318.453125 206.652344 318.453125 Z M 201.023438 310.757812 C 211.628906 311.570312 222.558594 309.851562 230.929688 308.246094 C 241.1875 306.292969 250.582031 303.433594 258.835938 299.734375 C 266.1875 296.457031 271.234375 291.851562 274.253906 285.644531 C 276.882812 280.25 278.535156 274.015625 279.605469 265.507812 C 280.976562 254.785156 280.835938 243.71875 280.699219 232.996094 C 280.652344 229.183594 280.605469 225.253906 280.628906 221.371094 C 280.628906 218.371094 280.675781 215.394531 280.722656 212.394531 C 280.789062 205.582031 280.882812 198.558594 280.722656 191.675781 C 280.488281 181.28125 279.929688 170.632812 279.046875 160.074219 C 278.582031 154.332031 278.09375 148.425781 277.300781 142.730469 C 276.628906 137.820312 275.300781 134.359375 272.929688 131.519531 C 271.253906 129.519531 269.046875 127.847656 266.722656 126.078125 C 265.859375 125.429688 264.976562 124.753906 264.09375 124.054688 C 261.046875 121.636719 257.929688 118.917969 256.324219 115.058594 L 254.746094 111.242188 L 259.324219 109.894531 C 259.859375 109.753906 260.347656 109.59375 260.789062 109.453125 C 262.417969 108.917969 262.441406 108.3125 262.441406 108.082031 C 262.441406 107.40625 262.347656 106.617188 262.234375 105.777344 C 262.117188 104.800781 261.976562 103.664062 261.976562 102.5 C 261.976562 101.335938 262.046875 100.175781 262.117188 99.035156 C 262.1875 97.941406 262.253906 96.828125 262.253906 95.757812 C 262.1875 95.804688 262.117188 95.851562 262.046875 95.898438 L 261.324219 96.339844 C 260.324219 96.851562 259.300781 97.222656 258.417969 97.546875 L 258.277344 97.59375 C 254.929688 98.828125 251.277344 99.78125 247.140625 100.5 L 245.117188 100.828125 C 236.8125 102.058594 228.371094 102.3125 220.210938 102.570312 L 218.558594 102.617188 C 199.976562 103.199219 181.164062 102.824219 162.628906 101.523438 C 158.417969 101.222656 153.835938 100.847656 148.605469 100.359375 L 148.117188 100.316406 C 146.023438 100.105469 143.90625 99.894531 141.8125 99.664062 C 141.675781 99.664062 141.417969 99.640625 141.09375 99.617188 C 138.535156 99.429688 136.511719 99.222656 134.859375 98.917969 C 134.324219 102.78125 134.582031 106.847656 135.582031 110.871094 C 137.117188 111.195312 138.652344 111.5 140.09375 111.800781 L 145.300781 112.847656 L 142.535156 117.382812 C 140.210938 121.171875 136.441406 123.941406 133.117188 126.382812 C 131.441406 127.589844 129.859375 128.753906 128.628906 129.917969 C 123.253906 134.960938 122.558594 142.402344 121.859375 150.261719 C 121.789062 150.984375 121.722656 151.679688 121.652344 152.402344 C 119.628906 173.421875 118.835938 194.957031 119.300781 216.371094 C 119.417969 221.882812 119.347656 227.488281 119.300781 232.882812 C 119.1875 241.878906 119.09375 251.207031 119.859375 260.25 C 121.046875 274.15625 123.882812 289.363281 135.859375 296.921875 C 140.023438 299.546875 144.835938 301.339844 149.417969 302.945312 C 154.789062 304.804688 160.117188 306.316406 165.210938 307.429688 C 175.210938 309.617188 196.046875 310.476562 199.558594 310.570312 L 200 310.453125 L 200.90625 310.6875 C 200.90625 310.6875 200.976562 310.6875 201.023438 310.710938 Z M 135.859375 91.570312 C 136.722656 91.757812 138.371094 91.988281 141.628906 92.246094 C 142.070312 92.269531 142.417969 92.292969 142.605469 92.316406 C 144.699219 92.546875 146.765625 92.757812 148.859375 92.964844 L 149.324219 93.011719 C 154.488281 93.5 159.023438 93.875 163.164062 94.152344 C 181.441406 95.453125 200.023438 95.804688 218.347656 95.222656 L 220 95.175781 C 227.953125 94.917969 236.164062 94.664062 244.023438 93.5 L 245.953125 93.199219 C 249.582031 92.570312 252.8125 91.734375 255.746094 90.640625 L 255.882812 90.59375 C 256.605469 90.339844 257.277344 90.082031 257.859375 89.804688 L 258.070312 89.664062 C 258.070312 89.664062 258.253906 89.546875 258.347656 89.5 C 257.464844 89.339844 256.605469 89.199219 255.929688 89.105469 C 255.234375 89.011719 254.605469 88.898438 254.023438 88.804688 C 247.765625 87.664062 242.070312 86.6875 236.652344 85.875 L 234.953125 85.617188 C 224.09375 83.945312 213.859375 82.386719 202.699219 81.875 C 187.535156 81.175781 168.8125 83.59375 158.976562 85.082031 C 153.882812 85.851562 148.835938 86.804688 143.976562 87.945312 L 143.746094 87.992188 C 140.535156 88.734375 137.210938 89.5 135.8125 91.59375 Z M 136.347656 92.710938 Z M 136.347656 92.710938 " />
        <path
            style=" stroke:none;fill-rule:nonzero;fill:rgb(20.784314%,40.392157%,22.745098%);fill-opacity:1;"
            d="M 143.789062 119.894531 C 182.023438 122.636719 221.300781 124.148438 259.277344 117.894531 C 263.976562 117.125 261.976562 109.964844 257.300781 110.730469 C 238.605469 113.800781 219.558594 114.570312 200.652344 114.617188 C 181.746094 114.660156 162.722656 113.824219 143.789062 112.453125 C 139.023438 112.105469 139.046875 119.546875 143.789062 119.871094 Z M 143.789062 119.894531 " />
        <path
            style=" stroke:none;fill-rule:nonzero;fill:rgb(20.784314%,40.392157%,22.745098%);fill-opacity:1;"
            d="M 241.90625 281.457031 C 232.8125 280.203125 223.652344 279.339844 214.488281 278.921875 C 196.117188 278.132812 177.582031 279.015625 159.417969 281.945312 C 151.347656 283.25 141.859375 284.667969 135.929688 290.875 C 134.628906 292.246094 136.347656 294.757812 138.023438 293.597656 C 144.070312 289.410156 151 287.875 158.1875 286.828125 C 166.835938 285.574219 175.535156 284.644531 184.253906 284.15625 C 201.605469 283.179688 219 283.691406 236.234375 285.828125 C 244.746094 286.875 254.023438 287.78125 261.582031 292.222656 C 263.605469 293.410156 265.953125 290.550781 264.140625 288.921875 C 258.117188 283.480469 249.675781 282.527344 241.90625 281.457031 Z M 241.90625 281.457031 " />
    </g>
</svg>