<svg xmlns="http://www.w3.org/2000/svg" xmlns:xlink="http://www.w3.org/1999/xlink" width="400px"
    height="1071px" viewBox="0 0 400 1065" version="1.1">
    <g id="surface1">
        <path
            style=" stroke:none;fill-rule:evenodd;fill:rgb(20.784314%,40.392157%,22.745098%);fill-opacity:1;"
            d="M 175.371094 145.542969 C 173.1875 145.308594 170.929688 144.960938 168.859375 144.238281 C 155.023438 139.355469 144.859375 130.03125 137.417969 117.59375 C 134.210938 112.21875 131.953125 106.453125 132.1875 100.011719 C 132.300781 96.546875 133.882812 94.875 137.371094 95.011719 C 139.90625 95.128906 142.558594 95.339844 144.929688 96.152344 C 158.835938 100.804688 169.210938 109.894531 176.699219 122.335938 C 179.8125 127.496094 182.164062 133.007812 182.371094 137.472656 C 182.488281 144.519531 180.722656 146.148438 175.371094 145.566406 Z M 189.324219 137.355469 C 188.253906 127.242188 183.652344 118.570312 177.324219 110.847656 C 169.371094 101.128906 159.765625 93.523438 147.628906 89.59375 C 144.835938 88.6875 141.882812 88.292969 139 87.664062 C 129.511719 87.433594 124.371094 92.988281 125.117188 102.734375 C 125.765625 111.40625 129.441406 118.964844 134.394531 125.894531 C 142.835938 137.707031 153.535156 146.773438 167.605469 151.121094 C 171.253906 152.261719 175.371094 152.867188 179.140625 152.425781 C 186.835938 151.496094 190.277344 146.214844 189.347656 137.355469 Z M 189.324219 137.355469 " />
        <path
            style=" stroke:none;fill-rule:evenodd;fill:rgb(20.784314%,40.392157%,22.745098%);fill-opacity:1;"
            d="M 283.234375 250.066406 C 275.976562 250.925781 272.164062 253.160156 224.722656 253.042969 C 223.070312 252.949219 221.441406 252.855469 219.789062 252.738281 C 213.347656 252.226562 206.929688 251.34375 200.558594 249.996094 C 195.535156 248.925781 190.722656 246.855469 185.859375 245.113281 C 183.90625 244.414062 183.1875 242.902344 183.234375 240.671875 C 183.441406 226.695312 183.488281 212.722656 183.582031 198.746094 L 183.582031 196.46875 C 199.789062 203.375 216.699219 204.722656 233.699219 204.839844 C 250.699219 204.953125 267.605469 203.816406 283.765625 197.117188 L 283.765625 199.535156 C 283.699219 207.441406 283.558594 215.347656 283.511719 223.277344 L 283.511719 229.671875 C 283.511719 229.671875 283.210938 250.066406 283.210938 250.066406 Z M 222.417969 258.738281 C 222.417969 258.738281 222.535156 258.738281 222.582031 258.714844 L 222.582031 258.761719 C 222.582031 258.761719 222.464844 258.738281 222.417969 258.738281 Z M 277.722656 305.175781 C 274.234375 306.570312 273.140625 306.734375 269.511719 307.664062 C 259.464844 310.269531 249.1875 311.082031 238.859375 311.339844 C 224.722656 311.664062 210.652344 310.964844 196.859375 307.546875 C 192.605469 306.476562 188.164062 305.316406 184.417969 302.945312 C 183.582031 302.410156 182.882812 300.851562 182.675781 299.640625 C 182.582031 299.152344 182.558594 297.222656 182.558594 294.363281 C 182.558594 292.480469 182.558594 290.175781 182.605469 287.667969 C 182.746094 274.0625 183.210938 253.601562 183.210938 251.785156 C 192.722656 255.902344 202.535156 258.042969 212.464844 259.132812 C 214.277344 259.320312 216.117188 259.507812 217.953125 259.621094 C 218.1875 259.644531 218.441406 259.644531 218.675781 259.667969 C 218.789062 259.667969 218.90625 259.667969 219 259.691406 C 220.046875 259.761719 221.09375 259.808594 222.140625 259.855469 C 222.140625 259.855469 258.652344 262.132812 283.117188 257.644531 L 282.628906 291.640625 C 282.628906 292.039062 282.628906 292.410156 282.628906 292.78125 L 282.628906 292.851562 C 282.605469 295.085938 282.582031 296.921875 282.582031 298.128906 C 282.582031 298.96875 282.582031 299.480469 282.605469 299.6875 C 282.789062 301.804688 279.488281 304.476562 277.722656 305.175781 Z M 177.371094 162.191406 C 176.277344 161.890625 175.234375 161.75 174.347656 161.332031 C 170.582031 159.539062 166.652344 158.496094 162.488281 158.355469 C 159.90625 158.261719 157.859375 157.097656 156.117188 155.285156 C 153.535156 152.609375 150.511719 150.679688 146.953125 149.566406 C 144.347656 148.75 142.253906 147.261719 140.882812 144.84375 C 138.882812 141.308594 136.117188 138.519531 132.582031 136.425781 C 130.394531 135.148438 128.929688 133.265625 128.1875 130.847656 C 127.023438 126.960938 125 123.589844 122.09375 120.730469 C 120.394531 119.058594 119.441406 117.011719 119.394531 114.59375 C 119.324219 110.707031 118.582031 106.964844 116.859375 103.453125 C 115.628906 100.894531 115.882812 98.453125 116.976562 95.898438 C 118.140625 93.175781 119.164062 90.410156 119.953125 87.546875 C 120.789062 84.570312 122.558594 82.898438 125.535156 82.128906 C 128.1875 81.433594 130.835938 80.597656 133.347656 79.480469 C 136.253906 78.199219 138.90625 78.269531 141.90625 79.410156 C 144.882812 80.574219 148.046875 81.433594 151.210938 81.78125 C 154.300781 82.128906 156.976562 82.945312 159.117188 85.246094 C 161.628906 87.921875 164.675781 89.734375 168.140625 90.828125 C 170.859375 91.6875 172.90625 93.292969 174.300781 95.757812 C 176.210938 99.105469 178.835938 101.78125 182.164062 103.734375 C 184.535156 105.128906 186.140625 107.128906 186.929688 109.777344 C 188.046875 113.476562 189.976562 116.660156 192.722656 119.359375 C 194.628906 121.242188 195.605469 123.5 195.675781 126.21875 C 195.746094 129.894531 196.511719 133.449219 198.140625 136.777344 C 199.417969 139.378906 199.1875 141.890625 198.023438 144.542969 C 196.859375 147.171875 195.835938 149.914062 195.09375 152.679688 C 194.277344 155.679688 192.582031 157.378906 189.605469 158.167969 C 186.699219 158.9375 183.90625 160.144531 181.046875 161.097656 C 179.835938 161.492188 178.605469 161.820312 177.441406 162.144531 Z M 210.558594 161.214844 C 214.722656 160.84375 218.882812 160.539062 223.046875 160.285156 L 223.117188 160.285156 C 224.464844 160.214844 225.8125 160.121094 227.164062 160.027344 C 228.371094 159.960938 229.605469 159.890625 230.8125 159.820312 C 232.046875 159.773438 233.394531 159.75 234.8125 159.75 C 234.8125 159.75 234.8125 159.75 234.8125 159.773438 C 262.953125 159.425781 277.582031 166.492188 278 166.726562 C 278.464844 166.910156 278.929688 167.097656 279.371094 167.261719 C 279.371094 167.261719 279.394531 167.261719 279.417969 167.285156 C 282.234375 168.492188 282.277344 172.539062 279.535156 173.886719 C 279.464844 173.910156 279.417969 173.933594 279.347656 173.980469 C 275.164062 175.910156 270.789062 177.074219 266.253906 177.933594 C 244.582031 182.445312 227.558594 180.816406 222.324219 180.097656 L 222.300781 180.097656 C 220.511719 180.003906 218.722656 179.863281 216.929688 179.722656 C 208.511719 179.027344 200.210938 177.746094 192.1875 175.003906 C 189.722656 174.167969 187.347656 172.957031 185.117188 171.632812 C 183.234375 170.515625 183.234375 169.445312 185.023438 168.261719 C 186.511719 167.261719 188.164062 166.402344 189.859375 165.773438 C 196.511719 163.238281 203.464844 161.867188 210.511719 161.214844 Z M 283.882812 186.699219 C 283.953125 188.164062 283.441406 189.28125 282.164062 189.839844 C 279.277344 191.117188 276.441406 192.558594 273.417969 193.445312 C 262.652344 196.582031 251.605469 197.535156 240.441406 197.792969 C 226.300781 198.09375 212.210938 197.511719 198.441406 194.09375 C 194.117188 193.027344 189.929688 191.1875 185.789062 189.445312 C 184.882812 189.074219 183.882812 187.746094 183.765625 186.769531 C 183.488281 184.304688 183.699219 181.792969 183.722656 179.167969 C 199.953125 186.210938 216.859375 187.351562 233.90625 187.515625 C 250.929688 187.675781 267.789062 186.515625 283.90625 179.816406 C 283.90625 182.234375 283.789062 184.445312 283.90625 186.675781 Z M 286.371094 163.167969 C 282.90625 160.703125 279.046875 159.214844 275.046875 158.050781 C 275.046875 158.050781 275.023438 158.050781 274.953125 158.027344 C 274.628906 157.914062 273.347656 157.519531 271.046875 156.960938 C 271.023438 156.960938 271 156.960938 270.976562 156.9375 C 269.046875 156.496094 266.394531 155.960938 263 155.425781 C 258.535156 154.726562 252.765625 154.054688 245.582031 153.585938 C 242.164062 153.378906 238.394531 153.214844 234.300781 153.121094 C 233.582031 153.121094 232.859375 153.097656 232.140625 153.078125 C 228.929688 152.9375 225.722656 152.960938 222.535156 153.078125 C 216.1875 153.355469 209.859375 154.167969 203.558594 155.191406 C 203.046875 155.261719 202.488281 155.261719 201.371094 155.308594 C 202.371094 152.609375 203.070312 150.214844 204.140625 148.007812 C 206.417969 143.285156 206.511719 138.707031 204.558594 133.777344 C 203.371094 130.777344 202.976562 127.429688 202.558594 124.171875 C 202.070312 120.613281 200.675781 117.570312 198.210938 115.035156 C 196 112.777344 194.394531 110.21875 193.441406 107.175781 C 192.234375 103.292969 189.835938 100.246094 186.347656 98.152344 C 183.675781 96.546875 181.605469 94.429688 180.023438 91.757812 C 177.90625 88.175781 174.765625 85.945312 170.929688 84.386719 C 168.605469 83.457031 166.210938 82.222656 164.394531 80.527344 C 160.765625 77.132812 156.789062 75.179688 151.8125 74.828125 C 149.253906 74.667969 146.628906 73.898438 144.253906 72.851562 C 139.675781 70.828125 135.300781 70.992188 130.765625 72.945312 C 128.488281 73.921875 126.117188 74.691406 123.722656 75.292969 C 118.117188 76.757812 114.582031 80.128906 113.117188 85.78125 C 112.511719 88.128906 111.722656 90.433594 110.722656 92.617188 C 108.628906 97.152344 108.511719 101.570312 110.371094 106.289062 C 111.511719 109.175781 111.976562 112.382812 112.371094 115.476562 C 112.835938 119.242188 114.140625 122.542969 116.765625 125.21875 C 119.09375 127.589844 120.699219 130.3125 121.699219 133.449219 C 122.882812 137.125 125.164062 140.007812 128.441406 142.03125 C 131.210938 143.726562 133.417969 145.890625 135.070312 148.679688 C 137.140625 152.214844 140.1875 154.585938 144.046875 155.867188 C 146.859375 156.796875 149.324219 158.238281 151.371094 160.355469 C 154.746094 163.867188 158.976562 165.167969 163.746094 165.515625 C 166.023438 165.679688 168.277344 166.632812 170.535156 167.261719 C 172.140625 167.726562 173.722656 168.378906 175.347656 168.726562 C 176.324219 168.933594 176.8125 169.238281 176.699219 170.261719 C 176.652344 170.65625 176.699219 171.074219 176.699219 171.46875 C 176.488281 200.234375 176.324219 229.023438 176.023438 257.785156 C 176 260.4375 174.929688 276.109375 175.234375 289.085938 C 175.277344 291.433594 175.371094 293.664062 175.535156 295.734375 C 175.929688 301.199219 176.746094 305.433594 178.1875 306.757812 C 182.746094 310.917969 191.441406 313.5 197.417969 314.734375 C 215.929688 318.523438 234.605469 319.175781 253.394531 317.246094 C 261.929688 316.359375 270.394531 315.152344 278.441406 312.082031 C 280.859375 311.152344 283.1875 309.851562 285.371094 308.40625 C 288.1875 306.546875 289.535156 303.875 289.558594 300.339844 L 289.558594 299.128906 C 289.558594 297.550781 289.582031 295.851562 289.605469 294.0625 L 290.394531 222.789062 C 290.394531 222.046875 290.394531 221.300781 290.394531 220.582031 C 290.488281 213.046875 290.582031 205.699219 290.675781 198.863281 C 290.8125 188.1875 290.90625 178.746094 291 171.703125 C 291.046875 167.84375 289.417969 165.121094 286.441406 163.003906 L 286.441406 163.050781 Z M 286.371094 163.167969 " />
    </g>
</svg>