<svg xmlns="http://www.w3.org/2000/svg" xmlns:xlink="http://www.w3.org/1999/xlink" width="400px"
    height="1071px" viewBox="0 0 400 1065" version="1.1">
    <g id="surface1">
        <path
            style=" stroke:none;fill-rule:nonzero;fill:rgb(20.784314%,40.392157%,22.745098%);fill-opacity:1;"
            d="M 274.511719 264.925781 C 274.652344 266.691406 273.558594 268.273438 271.953125 268.855469 C 271.605469 268.808594 271.253906 268.714844 270.90625 268.550781 C 268.953125 267.691406 268.070312 265.390625 268.929688 263.4375 C 269.234375 262.738281 269.535156 262.0625 269.835938 261.367188 C 270 261.367188 270.164062 261.367188 270.324219 261.34375 C 272.464844 261.179688 274.324219 262.785156 274.488281 264.925781 Z M 274.511719 264.925781 " />
        <path
            style=" stroke:none;fill-rule:nonzero;fill:rgb(20.784314%,40.392157%,22.745098%);fill-opacity:1;"
            d="M 311.628906 146.867188 C 305 188.140625 293.023438 228.417969 276.046875 266.597656 C 275.324219 268.226562 273.628906 269.109375 271.953125 268.855469 C 273.558594 268.273438 274.628906 266.691406 274.511719 264.925781 C 274.347656 262.785156 272.488281 261.179688 270.347656 261.34375 C 270.1875 261.34375 270.023438 261.34375 269.859375 261.367188 C 286.070312 224.417969 297.535156 185.492188 303.953125 145.636719 C 307.953125 120.777344 308.953125 100.59375 307.09375 82.59375 C 288.722656 85.269531 270.882812 86.6875 252.210938 88.105469 C 242.699219 89.386719 232.582031 90.386719 231.464844 90.410156 C 223.210938 90.570312 214.90625 91.222656 206.722656 92.363281 C 200.371094 141.332031 188.253906 187.910156 170.628906 230.929688 C 200.371094 238.695312 226.464844 247.089844 248.277344 255.855469 L 248.789062 256.066406 C 255.722656 258.855469 262.882812 261.738281 269.882812 261.367188 C 269.582031 262.0625 269.277344 262.761719 268.976562 263.4375 C 268.09375 265.390625 268.976562 267.691406 270.953125 268.550781 C 271.300781 268.714844 271.652344 268.808594 272 268.855469 C 271.675781 268.96875 271.324219 269.039062 270.953125 269.0625 C 262.023438 269.714844 253.835938 266.414062 245.90625 263.226562 L 245.394531 263.019531 C 222.859375 253.949219 195.605469 245.296875 164.394531 237.277344 C 163.300781 236.996094 162.394531 236.253906 161.882812 235.230469 C 161.371094 234.230469 161.347656 233.042969 161.765625 231.996094 C 180.394531 187.628906 193.046875 139.308594 199.394531 88.410156 C 199.511719 87.480469 199.953125 86.640625 200.628906 86.015625 C 201.1875 85.503906 201.882812 85.152344 202.652344 85.039062 C 208.371094 84.152344 214.140625 83.503906 219.929688 83.105469 C 223.789062 82.84375 223.789062 82.84375 219.929688 83.105469 C 220.558594 82.550781 241.976562 81.039062 242.882812 80.992188 L 249.070312 80.527344 C 269.882812 78.945312 289.558594 77.457031 309.882812 74.292969 C 310.90625 74.132812 311.976562 74.410156 312.8125 75.015625 C 313.652344 75.644531 314.1875 76.574219 314.324219 77.621094 C 316.882812 97.382812 316.023438 119.382812 311.628906 146.820312 Z M 311.628906 146.867188 " />
        <path
            style=" stroke:none;fill-rule:nonzero;fill:rgb(20.784314%,40.392157%,22.745098%);fill-opacity:1;"
            d="M 274.511719 264.925781 C 274.652344 266.691406 273.558594 268.273438 271.953125 268.855469 C 271.605469 268.808594 271.253906 268.714844 270.90625 268.550781 C 268.953125 267.691406 268.070312 265.390625 268.929688 263.4375 C 269.234375 262.738281 269.535156 262.0625 269.835938 261.367188 C 270 261.367188 270.164062 261.367188 270.324219 261.34375 C 272.464844 261.179688 274.324219 262.785156 274.488281 264.925781 Z M 274.511719 264.925781 " />
        <path
            style=" stroke:none;fill-rule:nonzero;fill:rgb(20.784314%,40.392157%,22.745098%);fill-opacity:1;"
            d="M 187.371094 218.488281 C 188.371094 217.582031 189.8125 217.207031 191.210938 217.675781 C 215.675781 225.695312 240.953125 231.929688 266.347656 236.207031 C 268.464844 236.554688 269.882812 238.554688 269.535156 240.671875 C 269.1875 242.789062 267.1875 244.207031 265.070312 243.855469 C 239.300781 239.53125 213.628906 233.183594 188.789062 225.046875 C 186.746094 224.371094 185.652344 222.183594 186.300781 220.140625 C 186.511719 219.488281 186.882812 218.929688 187.371094 218.488281 Z M 187.371094 218.488281 " />
        <path
            style=" stroke:none;fill-rule:nonzero;fill:rgb(20.784314%,40.392157%,22.745098%);fill-opacity:1;"
            d="M 198.605469 197.839844 C 199.535156 197 200.859375 196.605469 202.164062 196.933594 C 226.558594 202.976562 251.441406 208.347656 276.164062 212.882812 C 278.277344 213.277344 279.675781 215.300781 279.277344 217.394531 C 278.882812 219.511719 276.859375 220.90625 274.765625 220.511719 C 249.90625 215.929688 224.859375 210.535156 200.324219 204.464844 C 198.253906 203.953125 196.976562 201.839844 197.488281 199.769531 C 197.675781 199 198.09375 198.328125 198.628906 197.839844 Z M 198.605469 197.839844 " />
        <path
            style=" stroke:none;fill-rule:nonzero;fill:rgb(20.784314%,40.392157%,22.745098%);fill-opacity:1;"
            d="M 213.441406 178.679688 C 214.324219 177.886719 215.558594 177.492188 216.8125 177.726562 L 282.90625 190.722656 C 285 191.140625 286.371094 193.1875 285.976562 195.28125 C 285.558594 197.375 283.511719 198.746094 281.417969 198.351562 L 215.324219 185.351562 C 213.234375 184.933594 211.859375 182.886719 212.253906 180.792969 C 212.417969 179.957031 212.859375 179.214844 213.441406 178.679688 Z M 213.441406 178.679688 " />
        <path
            style=" stroke:none;fill-rule:nonzero;fill:rgb(20.784314%,40.392157%,22.745098%);fill-opacity:1;"
            d="M 207.234375 157.402344 C 208.023438 156.679688 209.09375 156.285156 210.234375 156.402344 C 236 158.9375 261.835938 163.285156 287 169.308594 C 289.09375 169.796875 290.371094 171.910156 289.859375 173.980469 C 289.371094 176.074219 287.253906 177.351562 285.1875 176.839844 C 260.347656 170.886719 234.882812 166.609375 209.464844 164.097656 C 207.324219 163.890625 205.765625 161.980469 205.976562 159.867188 C 206.070312 158.867188 206.535156 158.007812 207.234375 157.378906 Z M 207.234375 157.402344 " />
        <path
            style=" stroke:none;fill-rule:nonzero;fill:rgb(20.784314%,40.392157%,22.745098%);fill-opacity:1;"
            d="M 210.8125 136.613281 C 211.464844 136.007812 212.324219 135.636719 213.277344 135.613281 C 239.464844 134.660156 265.652344 137.195312 291.164062 143.195312 C 293.253906 143.683594 294.535156 145.773438 294.046875 147.867188 C 293.558594 149.960938 291.464844 151.238281 289.371094 150.75 C 264.535156 144.914062 239.023438 142.425781 213.558594 143.378906 C 211.417969 143.449219 209.605469 141.773438 209.535156 139.636719 C 209.488281 138.449219 209.976562 137.355469 210.789062 136.636719 Z M 210.8125 136.613281 " />
        <path
            style=" stroke:none;fill-rule:nonzero;fill:rgb(20.784314%,40.392157%,22.745098%);fill-opacity:1;"
            d="M 218.417969 110.871094 C 219.070312 110.289062 219.929688 109.894531 220.859375 109.871094 C 244.117188 108.847656 267.699219 108.917969 290.953125 110.035156 C 293.09375 110.128906 294.746094 111.964844 294.652344 114.105469 C 294.558594 116.242188 292.722656 117.894531 290.582031 117.800781 C 267.558594 116.707031 244.210938 116.636719 221.210938 117.660156 C 219.070312 117.753906 217.253906 116.105469 217.164062 113.964844 C 217.117188 112.777344 217.605469 111.683594 218.417969 110.917969 Z M 218.417969 110.871094 " />
        <path
            style=" stroke:none;fill-rule:nonzero;fill:rgb(20.784314%,40.392157%,22.745098%);fill-opacity:1;"
            d="M 176.140625 121.242188 C 176.699219 120.730469 177.394531 120.382812 178.164062 120.265625 L 179.675781 120.035156 C 182.675781 119.546875 192.652344 118.988281 195.652344 119.195312 C 197.789062 119.335938 199.394531 121.195312 199.253906 123.335938 C 199.117188 125.476562 197.253906 127.078125 195.117188 126.941406 C 193.277344 126.824219 184.140625 127.171875 181.859375 127.542969 C 171.765625 166.050781 156.675781 203.046875 137 237.648438 C 176.511719 257.414062 211.347656 271.273438 243.300781 279.945312 C 243.394531 279.808594 243.464844 279.667969 243.558594 279.527344 C 245.140625 276.875 250.722656 265.550781 251.417969 262.972656 C 251.976562 260.902344 254.09375 259.667969 256.164062 260.226562 C 258.234375 260.785156 259.464844 262.902344 258.90625 264.972656 C 257.929688 268.597656 252.070312 280.363281 250.234375 283.480469 C 249.675781 284.433594 249.09375 285.386719 248.582031 286.316406 C 247.722656 287.875 245.90625 288.644531 244.1875 288.199219 C 209.953125 279.179688 172.535156 264.296875 129.835938 242.71875 C 128.882812 242.230469 128.164062 241.390625 127.859375 240.347656 C 127.558594 239.324219 127.699219 238.207031 128.234375 237.300781 C 149 201.582031 164.722656 163.167969 174.976562 123.125 C 175.164062 122.382812 175.582031 121.730469 176.117188 121.21875 Z M 176.140625 121.242188 " />
        <path
            style=" stroke:none;fill-rule:nonzero;fill:rgb(20.784314%,40.392157%,22.745098%);fill-opacity:1;"
            d="M 122.046875 154.609375 C 122.300781 154.378906 122.605469 154.167969 122.90625 154.007812 C 123.765625 153.542969 125.164062 153.144531 126.976562 153.914062 L 161.464844 169.585938 C 163.441406 170.398438 164.394531 172.679688 163.558594 174.65625 C 162.746094 176.632812 160.464844 177.585938 158.488281 176.75 L 126.929688 162.308594 C 122.929688 173.261719 118.117188 185.722656 112.234375 197.976562 C 111.394531 199.699219 106.347656 208.746094 101.652344 216.953125 C 97.582031 224.046875 95.070312 228.347656 93.371094 230.976562 C 128.929688 260.15625 165.394531 285.433594 204.628906 308.128906 C 208.789062 301.921875 216.234375 286.734375 218.976562 279.785156 C 219.765625 277.785156 222.023438 276.808594 224.023438 277.597656 C 226.023438 278.386719 227 280.644531 226.210938 282.644531 C 222.789062 291.269531 214.347656 308.011719 208.929688 315.546875 C 207.765625 317.152344 205.582031 317.640625 203.859375 316.640625 C 162 292.664062 123.324219 265.832031 85.605469 234.625 C 83.953125 233.253906 83.722656 230.8125 85.09375 229.160156 C 85.253906 228.976562 85.417969 228.789062 85.605469 228.648438 C 88.324219 224.929688 103.558594 198.09375 105.234375 194.628906 C 111.511719 181.5625 116.582031 168.097656 120.722656 156.65625 C 121.023438 155.84375 121.441406 155.167969 122.023438 154.65625 Z M 90.582031 228.625 C 90.253906 228.371094 89.929688 228.160156 89.582031 228.023438 C 89.929688 228.160156 90.277344 228.371094 90.582031 228.625 Z M 90.582031 228.625 " />
        <path
            style=" stroke:none;fill-rule:nonzero;fill:rgb(20.784314%,40.392157%,22.745098%);fill-opacity:1;"
            d="M 135.277344 172.445312 C 136.371094 171.46875 137.953125 171.121094 139.394531 171.726562 C 141.371094 172.5625 142.300781 174.816406 141.464844 176.792969 C 133.8125 195.003906 124.511719 212.628906 113.765625 229.207031 C 112.605469 230.996094 110.210938 231.507812 108.394531 230.347656 C 106.605469 229.183594 106.09375 226.789062 107.253906 224.976562 C 117.746094 208.792969 126.859375 191.582031 134.300781 173.796875 C 134.535156 173.261719 134.859375 172.796875 135.253906 172.421875 Z M 135.277344 172.445312 " />
        <path
            style=" stroke:none;fill-rule:nonzero;fill:rgb(20.784314%,40.392157%,22.745098%);fill-opacity:1;"
            d="M 196.859375 276.410156 C 198.164062 275.226562 200.164062 275.039062 201.675781 276.085938 C 203.441406 277.296875 203.882812 279.714844 202.675781 281.480469 L 198.628906 287.363281 C 197.417969 289.132812 195 289.574219 193.234375 288.363281 C 191.464844 287.15625 191.023438 284.738281 192.234375 282.96875 L 196.277344 277.085938 C 196.441406 276.832031 196.652344 276.621094 196.859375 276.410156 Z M 196.859375 276.410156 " />
        <path
            style=" stroke:none;fill-rule:nonzero;fill:rgb(20.784314%,40.392157%,22.745098%);fill-opacity:1;"
            d="M 178.699219 267.621094 C 179.90625 266.527344 181.722656 266.273438 183.234375 267.109375 C 185.09375 268.15625 185.765625 270.527344 184.699219 272.390625 L 181.371094 278.296875 C 180.324219 280.15625 177.953125 280.828125 176.09375 279.761719 C 174.234375 278.714844 173.558594 276.34375 174.628906 274.480469 L 177.953125 268.574219 C 178.164062 268.203125 178.417969 267.878906 178.722656 267.621094 Z M 178.699219 267.621094 " />
    </g>
</svg>