<svg xmlns="http://www.w3.org/2000/svg" xmlns:xlink="http://www.w3.org/1999/xlink" width="400px"
    height="1071px" viewBox="0 0 400 1065" version="1.1">
    <g id="surface1">
        <path
            style=" stroke:none;fill-rule:nonzero;fill:rgb(20.784314%,40.392157%,22.745098%);fill-opacity:1;"
            d="M 122.371094 94.5 C 120.835938 94.082031 119.722656 92.710938 119.699219 91.058594 L 119.558594 81.085938 C 119.558594 80.0625 119.511719 78.339844 120.464844 76.734375 C 122.164062 73.804688 125.511719 73.363281 126.953125 73.203125 C 139.464844 71.621094 152.210938 71.109375 164.8125 71.644531 C 165.835938 71.691406 168 71.78125 169.675781 73.339844 C 171.605469 75.132812 171.699219 77.621094 171.722656 78.6875 C 171.835938 82.363281 171.558594 86.058594 170.929688 89.664062 C 170.582031 91.640625 168.699219 92.339844 166.746094 91.988281 C 164.765625 91.640625 163.464844 90.386719 163.8125 88.410156 C 164.371094 85.269531 164.605469 82.085938 164.511719 78.898438 C 164.511719 78.898438 164.511719 78.898438 164.511719 78.875 C 152.324219 78.363281 140 78.875 127.882812 80.386719 C 127.371094 80.457031 127.023438 80.527344 126.8125 80.574219 C 126.8125 80.710938 126.8125 80.898438 126.8125 81.015625 L 126.953125 90.988281 C 126.976562 92.988281 125.394531 94.640625 123.394531 94.664062 C 123.046875 94.664062 122.722656 94.617188 122.394531 94.546875 Z M 122.371094 94.5 " />
        <path
            style=" stroke:none;fill-rule:nonzero;fill:rgb(20.784314%,40.392157%,22.745098%);fill-opacity:1;"
            d="M 114.046875 180.957031 C 111.628906 181.210938 110.582031 179.28125 110.210938 176.144531 C 112.882812 173.445312 115.464844 170.84375 117.464844 167.957031 C 117.140625 173.003906 119.09375 180.375 114.046875 180.957031 Z M 114.046875 180.957031 " />
        <path
            style=" stroke:none;fill-rule:nonzero;fill:rgb(20.784314%,40.392157%,22.745098%);fill-opacity:1;"
            d="M 114.046875 180.957031 C 111.628906 181.210938 110.582031 179.28125 110.210938 176.144531 C 112.882812 173.445312 115.464844 170.84375 117.464844 167.957031 C 117.140625 173.003906 119.09375 180.375 114.046875 180.957031 Z M 114.046875 180.957031 " />
        <path
            style=" stroke:none;fill-rule:nonzero;fill:rgb(20.784314%,40.392157%,22.745098%);fill-opacity:1;"
            d="M 132.234375 166.378906 C 130.652344 165.957031 129.511719 164.492188 129.558594 162.773438 C 129.605469 160.773438 131.277344 159.191406 133.277344 159.261719 L 159.558594 160.027344 C 161.558594 160.074219 163.140625 161.75 163.070312 163.75 C 163.023438 165.75 161.347656 167.332031 159.347656 167.261719 L 133.070312 166.492188 C 132.789062 166.492188 132.511719 166.445312 132.234375 166.378906 Z M 132.234375 166.378906 " />
        <path
            style=" stroke:none;fill-rule:nonzero;fill:rgb(20.784314%,40.392157%,22.745098%);fill-opacity:1;"
            d="M 125.8125 145.984375 C 124.347656 145.589844 123.253906 144.308594 123.140625 142.730469 C 123 140.730469 124.511719 139.007812 126.511719 138.867188 C 137.699219 138.101562 148.953125 136.566406 159.953125 134.335938 C 161.90625 133.9375 163.8125 135.195312 164.234375 137.148438 C 164.628906 139.101562 163.371094 141.007812 161.417969 141.425781 C 150.117188 143.726562 138.535156 145.308594 127.023438 146.078125 C 126.605469 146.101562 126.210938 146.078125 125.835938 145.960938 Z M 125.8125 145.984375 " />
        <path
            style=" stroke:none;fill-rule:nonzero;fill:rgb(20.784314%,40.392157%,22.745098%);fill-opacity:1;"
            d="M 113.1875 243.625 C 111.90625 243.277344 110.859375 242.253906 110.582031 240.859375 C 110.164062 238.902344 111.417969 236.972656 113.394531 236.578125 C 127.464844 233.648438 141.882812 232.136719 156.234375 232.066406 C 158.234375 232.066406 159.859375 233.671875 159.859375 235.671875 C 159.859375 237.671875 158.253906 239.300781 156.253906 239.300781 C 142.371094 239.347656 128.441406 240.8125 114.859375 243.648438 C 114.277344 243.765625 113.722656 243.742188 113.1875 243.601562 Z M 113.1875 243.625 " />
        <path
            style=" stroke:none;fill-rule:nonzero;fill:rgb(20.784314%,40.392157%,22.745098%);fill-opacity:1;"
            d="M 193.488281 318.3125 C 172.417969 318.871094 151.976562 310.363281 146.90625 288.085938 C 139.976562 258.578125 161 247.320312 171.835938 232.8125 C 172.628906 228.625 171.765625 227.023438 171.558594 226.695312 C 167.835938 224.859375 170.488281 218.835938 174.417969 220.488281 C 195.210938 239.460938 142.675781 252.648438 153.535156 286.363281 C 168.300781 333.988281 248.582031 306.035156 274.582031 280.644531 C 291.140625 262.808594 308.8125 227.089844 285.765625 210.417969 C 278.253906 203.769531 269.859375 200.722656 265.722656 201.234375 C 250.046875 202.046875 229.953125 237.371094 225.234375 232.953125 C 223.675781 231.882812 223.277344 229.765625 224.324219 228.207031 C 237.789062 209.976562 264.324219 178.46875 290.277344 205.328125 C 299.210938 213.210938 304.117188 222.929688 304.117188 232.648438 C 301.300781 284.78125 242.09375 320.105469 193.488281 318.3125 Z M 193.488281 318.3125 " />
        <path
            style=" stroke:none;fill-rule:nonzero;fill:rgb(20.784314%,40.392157%,22.745098%);fill-opacity:1;"
            d="M 233.117188 219.742188 C 232.789062 219.742188 232.464844 219.695312 232.164062 219.605469 C 231 219.253906 228.464844 218.882812 226.582031 219.277344 C 224.746094 219.671875 222.929688 218.488281 222.535156 216.652344 C 222.140625 214.8125 223.324219 213 225.164062 212.605469 C 228.535156 211.882812 232.347656 212.558594 234.070312 213.070312 C 235.882812 213.605469 236.90625 215.488281 236.394531 217.300781 C 235.953125 218.789062 234.605469 219.765625 233.117188 219.765625 Z M 233.117188 219.742188 " />
        <path
            style=" stroke:none;fill-rule:nonzero;fill:rgb(20.784314%,40.392157%,22.745098%);fill-opacity:1;"
            d="M 157.140625 227.578125 C 155.023438 227.578125 152.953125 227.417969 150.953125 226.976562 C 145.234375 225.71875 143.210938 220.207031 143.558594 214.859375 C 142.535156 214.210938 141.605469 213.371094 140.859375 212.347656 C 138.628906 209.300781 138.023438 205 139.1875 200.257812 C 141.277344 191.699219 152.371094 190.5625 158.722656 191.234375 C 159.234375 191.09375 160.417969 190.421875 161.140625 190.003906 C 163.464844 188.652344 166.117188 187.117188 168.882812 188.117188 C 169.605469 188.375 171.140625 188.746094 172.90625 189.164062 C 176.09375 189.933594 180.488281 190.980469 185.234375 192.605469 C 190.253906 194.328125 197 198.558594 199.464844 204.769531 C 200.765625 208.070312 200.628906 211.417969 199.023438 214.488281 C 195.09375 222.023438 185.417969 226.789062 174.441406 226.671875 C 171.210938 226.625 168.046875 226.90625 164.976562 227.160156 C 162.277344 227.394531 159.652344 227.601562 157.140625 227.601562 Z M 150.394531 216.070312 C 150.394531 217.859375 150.8125 219.953125 152.441406 220.324219 C 155.789062 221.070312 159.976562 220.71875 164.417969 220.324219 C 167.652344 220.046875 171 219.765625 174.558594 219.8125 C 174.675781 219.8125 174.789062 219.8125 174.90625 219.8125 C 181.746094 219.8125 189.90625 217.207031 192.976562 211.300781 C 193.652344 210 193.699219 208.722656 193.117188 207.28125 C 191.859375 204.09375 187.605469 200.652344 183 199.070312 C 178.558594 197.535156 174.371094 196.535156 171.300781 195.816406 C 169.417969 195.375 168 195.023438 166.929688 194.675781 C 166.347656 194.863281 165.253906 195.511719 164.558594 195.910156 C 162.535156 197.09375 160.417969 198.304688 158.117188 198.046875 C 155.789062 197.792969 146.835938 197.652344 145.8125 201.886719 C 145.164062 204.605469 145.347656 206.953125 146.371094 208.324219 C 146.859375 209 147.535156 209.394531 148.253906 209.441406 C 148.722656 209.441406 149.90625 209.1875 151.046875 208.882812 C 155.722656 207.699219 164.441406 205.511719 181.464844 209.1875 C 183.300781 209.582031 184.488281 211.394531 184.09375 213.253906 C 183.699219 215.09375 181.882812 216.277344 180.023438 215.882812 C 164.558594 212.558594 157.140625 214.417969 152.699219 215.535156 C 151.859375 215.742188 151.09375 215.929688 150.371094 216.070312 Z M 167.140625 194.628906 Z M 167.140625 194.628906 " />
        <path
            style=" stroke:none;fill-rule:nonzero;fill:rgb(20.784314%,40.392157%,22.745098%);fill-opacity:1;"
            d="M 176.347656 205.582031 C 175.699219 205.582031 175.023438 205.394531 174.441406 205 C 169.1875 201.417969 161.789062 198.976562 158.117188 198.210938 C 156.277344 197.816406 155.09375 196 155.464844 194.164062 C 155.859375 192.328125 157.675781 191.140625 159.511719 191.515625 C 163.394531 192.328125 171.722656 194.886719 178.253906 199.351562 C 179.8125 200.421875 180.234375 202.535156 179.164062 204.09375 C 178.511719 205.070312 177.417969 205.582031 176.324219 205.582031 Z M 176.347656 205.582031 " />
        <path
            style=" stroke:none;fill-rule:nonzero;fill:rgb(20.784314%,40.392157%,22.745098%);fill-opacity:1;"
            d="M 225.023438 220.628906 C 224.371094 220.628906 223.722656 220.441406 223.140625 220.046875 C 221.558594 219 221.140625 216.882812 222.1875 215.300781 C 225.675781 210.046875 231.535156 196.675781 228.765625 183.609375 C 226.070312 170.886719 217.953125 154.890625 194.535156 150.820312 C 174.90625 147.425781 169.371094 153.84375 163.140625 164.050781 C 158.441406 171.726562 157.023438 186.746094 157.234375 194.398438 C 157.277344 196.28125 155.789062 197.863281 153.90625 197.910156 C 152.023438 197.957031 150.441406 196.46875 150.394531 194.582031 C 150.234375 188.515625 151.164062 170.539062 157.300781 160.492188 C 164.253906 149.078125 171.953125 139.960938 195.699219 144.078125 C 216.90625 147.75 231.023438 161.285156 235.441406 182.167969 C 238.675781 197.46875 231.90625 212.976562 227.859375 219.070312 C 227.210938 220.070312 226.117188 220.605469 225.023438 220.605469 Z M 225.023438 220.628906 " />
        <path
            style=" stroke:none;fill-rule:nonzero;fill:rgb(20.784314%,40.392157%,22.745098%);fill-opacity:1;"
            d="M 157.628906 196.886719 C 156.90625 196.886719 156.210938 196.769531 155.511719 196.535156 C 153.582031 195.863281 152.140625 194.375 151.417969 192.328125 C 151.09375 191.351562 150.90625 190.257812 150.882812 188.886719 C 150.859375 187.933594 150.882812 186.792969 150.976562 185.304688 C 151.164062 182.351562 151.8125 179.515625 152.859375 177.097656 C 153.371094 175.886719 154 174.816406 154.722656 173.910156 C 155.953125 172.375 157.394531 171.445312 159.046875 171.097656 L 159.234375 171.050781 C 159.417969 171.003906 159.582031 170.980469 159.765625 170.980469 L 159.953125 170.980469 C 162.117188 170.886719 164.164062 171.796875 165.535156 173.492188 C 166.347656 174.492188 166.882812 175.75 167.164062 177.214844 C 167.417969 178.703125 167.394531 180.445312 167.09375 182.398438 C 166.882812 183.792969 166.417969 186.234375 165.765625 188.46875 C 165.347656 189.910156 164.929688 191.070312 164.488281 192.027344 C 164.117188 192.816406 163.746094 193.421875 163.324219 193.980469 C 162.558594 195.023438 161.511719 195.839844 160.324219 196.304688 C 159.394531 196.675781 158.488281 196.839844 157.582031 196.839844 Z M 160.300781 177.933594 C 160.300781 177.933594 160.164062 178.074219 160.046875 178.214844 C 159.835938 178.492188 159.488281 179.003906 159.117188 179.839844 C 158.371094 181.515625 157.90625 183.609375 157.765625 185.746094 C 157.699219 186.980469 157.675781 187.933594 157.699219 188.675781 C 157.699219 189.351562 157.765625 189.746094 157.835938 189.980469 C 157.835938 189.980469 157.859375 189.957031 157.882812 189.933594 C 158.023438 189.746094 158.164062 189.492188 158.324219 189.164062 C 158.605469 188.5625 158.90625 187.722656 159.210938 186.652344 C 159.789062 184.585938 160.210938 182.398438 160.347656 181.421875 C 160.535156 180.234375 160.558594 179.167969 160.441406 178.445312 C 160.394531 178.214844 160.347656 178.050781 160.300781 177.957031 Z M 160.164062 175.5625 C 160.164062 175.5625 160.117188 174.421875 160.117188 174.421875 Z M 160.164062 175.5625 " />
        <path
            style=" stroke:none;fill-rule:nonzero;fill:rgb(20.784314%,40.392157%,22.745098%);fill-opacity:1;"
            d="M 182.558594 193.515625 C 182 193.515625 181.464844 193.445312 180.90625 193.304688 C 176.1875 192.070312 173.652344 187.585938 174.09375 181.28125 C 174.488281 175.585938 179.023438 170.585938 183.976562 170.375 C 184.046875 170.375 184.140625 170.375 184.210938 170.375 C 187.324219 170.445312 189.140625 171.863281 190.117188 173.027344 C 192.835938 176.28125 192.09375 181.074219 191.722656 183.375 L 191.675781 183.632812 C 191.324219 186.003906 189.441406 190.304688 186.371094 192.328125 C 185.164062 193.117188 183.859375 193.535156 182.558594 193.535156 Z M 182.628906 186.675781 Z M 180.90625 181.746094 C 180.8125 183.050781 180.789062 186.074219 182.535156 186.628906 C 183.324219 186.257812 184.722656 183.910156 184.929688 182.5625 L 184.976562 182.28125 C 185.488281 178.957031 185.210938 177.769531 184.882812 177.375 C 184.789062 177.257812 184.488281 177.214844 184.1875 177.191406 C 182.835938 177.351562 181.070312 179.46875 180.90625 181.746094 Z M 180.90625 181.746094 " />
        <path
            style=" stroke:none;fill-rule:nonzero;fill:rgb(20.784314%,40.392157%,22.745098%);fill-opacity:1;"
            d="M 150.605469 293.945312 C 150.511719 294.109375 150.417969 294.269531 150.324219 294.433594 C 149.300781 296.316406 148.324219 298.105469 147.09375 299.105469 C 145.652344 300.269531 143.371094 300.433594 141.789062 299.480469 C 140.511719 298.710938 139.417969 297.222656 138.277344 295.640625 C 137.722656 294.875 137.164062 294.109375 136.582031 293.386719 C 133.140625 289.175781 128.535156 287.410156 124.582031 288.78125 C 120.371094 290.246094 118.882812 294.152344 117.699219 297.292969 C 116.953125 299.269531 116.234375 301.128906 115.1875 301.710938 C 114.210938 302.246094 112.371094 301.523438 111.347656 300.199219 C 109.953125 298.410156 109.417969 295.734375 108.953125 292.945312 C 106.371094 277.296875 105.582031 261.066406 104.8125 245.390625 C 104.765625 244.554688 104.441406 241.089844 103.929688 237.371094 C 103.929688 237.230469 103.929688 237.113281 103.929688 237.019531 C 103.441406 228.089844 103.164062 219 103.140625 210.046875 C 103.117188 204.488281 103.234375 199.535156 104.882812 195.09375 C 106.835938 189.816406 110.859375 185.792969 115.117188 181.515625 C 119.535156 177.097656 124.09375 172.515625 126.699219 166.214844 C 127.464844 164.355469 126.582031 162.238281 124.746094 161.472656 C 122.90625 160.703125 120.789062 161.585938 120.023438 163.425781 C 119.347656 165.027344 118.511719 166.515625 117.511719 167.933594 C 117.1875 172.980469 119.140625 180.351562 114.09375 180.933594 C 111.675781 181.191406 110.628906 179.257812 110.253906 176.121094 C 110.164062 176.214844 110.09375 176.28125 110 176.375 C 105.371094 181.027344 100.605469 185.816406 98.09375 192.582031 C 96.023438 198.164062 95.882812 204.046875 95.90625 210.070312 C 95.953125 219.164062 96.210938 228.371094 96.722656 237.414062 C 96.746094 238.019531 97.117188 241.277344 97.605469 245.160156 C 97.605469 245.414062 97.605469 245.625 97.605469 245.742188 C 98.371094 261.621094 99.1875 278.0625 101.835938 294.128906 C 102.441406 297.734375 103.234375 301.523438 105.675781 304.664062 C 107.164062 306.570312 109.417969 308.128906 111.90625 308.804688 C 114.09375 309.386719 116.464844 309.292969 118.675781 308.082031 C 122.117188 306.222656 123.441406 302.6875 124.511719 299.851562 C 125.277344 297.851562 125.976562 295.96875 127 295.617188 C 127.929688 295.292969 129.652344 296.292969 131.023438 297.96875 C 131.535156 298.570312 132 299.222656 132.464844 299.898438 C 133.90625 301.898438 135.558594 304.175781 138.117188 305.6875 C 142.300781 308.199219 147.882812 307.804688 151.699219 304.734375 C 154.046875 302.828125 155.488281 300.199219 156.746094 297.875 C 157.046875 297.316406 157.347656 296.804688 157.605469 296.316406 L 150.417969 294.757812 L 150.628906 293.921875 Z M 150.605469 293.945312 " />
        <path
            style=" stroke:none;fill-rule:nonzero;fill:rgb(20.784314%,40.392157%,22.745098%);fill-opacity:1;"
            d="M 117.746094 166.050781 C 118.394531 156.820312 119.140625 146.355469 113.765625 138.660156 C 102.234375 125.542969 102.394531 109.570312 117 99.058594 C 128.300781 91.246094 145.023438 91.246094 158.140625 91.988281 C 183.253906 88.480469 189.140625 122.359375 177.929688 138.496094 C 174.976562 143.148438 172 147.007812 170.929688 152.9375 L 178.953125 148.566406 C 180.164062 145.542969 182.140625 145.332031 184.023438 142.378906 C 198.09375 122.101562 189.324219 84.457031 160.582031 84.410156 C 136.09375 83.0625 102.347656 86.457031 98.371094 116.660156 C 96.953125 128.589844 102.253906 134.867188 107.789062 142.796875 C 113.535156 148.589844 109.117188 167.238281 110.164062 176.144531 C 112.835938 173.445312 115.417969 170.84375 117.417969 167.957031 C 117.464844 167.285156 117.558594 166.632812 117.699219 166.050781 Z M 117.746094 166.050781 " />
    </g>
</svg>